<?xml version="1.0" encoding="UTF-8" standalone="no"?>
<svg width="517px" height="424px" viewBox="0 0 517 424" version="1.1" xmlns="http://www.w3.org/2000/svg" xmlns:xlink="http://www.w3.org/1999/xlink">
    <!-- Generator: Sketch 3.8.3 (29802) - http://www.bohemiancoding.com/sketch -->
    <title>background illustration</title>
    <desc>Created with Sketch.</desc>
    <defs></defs>
    <g id="Page-1" stroke="none" stroke-width="1" fill="none" fill-rule="evenodd">
        <g id="Desktop-HD" transform="translate(-453.000000, -91.000000)" stroke="#343434" stroke-width="2">
            <g id="background-illustration" transform="translate(454.000000, 92.000000)">
                <g id="code-app" transform="translate(31.000000, 76.000000)">
                    <rect id="Rectangle-path" x="0" y="0" width="104" height="94"></rect>
                    <path d="M28.3636364,0 L28.3636364,94" id="Shape"></path>
                    <path d="M47.2727273,18.8 L56.7272727,18.8" id="Shape"></path>
                    <path d="M66.1818182,37.6 L85.0909091,37.6" id="Shape"></path>
                    <path d="M56.7272727,56.4 L70.9090909,56.4" id="Shape"></path>
                    <path d="M47.2727273,75.2 L56.7272727,75.2" id="Shape"></path>
                </g>
                <g id="watch" transform="translate(479.000000, 160.000000)">
                    <polyline id="Shape" points="4.5 8.90909091 6.75 0 24.75 0 27 8.90909091"></polyline>
                    <polyline id="Shape" points="27 40.0909091 24.75 49 6.75 49 4.5 40.0909091"></polyline>
                    <path d="M29.25,40.0909091 L2.25,40.0909091 C1.008,40.0909091 0,39.0930909 0,37.8636364 L0,11.1363636 C0,9.90690909 1.008,8.90909091 2.25,8.90909091 L29.25,8.90909091 C30.492,8.90909091 31.5,9.90690909 31.5,11.1363636 L31.5,37.8636364 C31.5,39.0930909 30.492,40.0909091 29.25,40.0909091 L29.25,40.0909091 Z" id="Shape"></path>
                    <rect id="Rectangle-path" x="31.5" y="20.0454545" width="4.5" height="8.90909091"></rect>
                    <polyline id="Shape" points="11.25 20.0454545 6.75 24.5 11.25 28.9545455"></polyline>
                    <polyline id="Shape" points="20.25 20.0454545 24.75 24.5 20.25 28.9545455"></polyline>
                </g>
                <g id="mobile-code" transform="translate(0.000000, 183.000000)">
                    <polyline id="Shape" points="12.1428571 17.1818182 7.28571429 22.0909091 12.1428571 27"></polyline>
                    <polyline id="Shape" points="21.8571429 17.1818182 26.7142857 22.0909091 21.8571429 27"></polyline>
                    <path d="M29.1428571,54 L4.85714286,54 C2.18571429,54 0,51.7909091 0,49.0909091 L0,4.90909091 C0,2.20909091 2.18571429,0 4.85714286,0 L29.1428571,0 C31.8142857,0 34,2.20909091 34,4.90909091 L34,49.0909091 C34,51.7909091 31.8142857,54 29.1428571,54 L29.1428571,54 Z" id="Shape"></path>
                    <ellipse id="Oval" cx="17" cy="44.1818182" rx="2.42857143" ry="2.45454545"></ellipse>
                    <path d="M0,9.81818182 L34,9.81818182" id="Shape"></path>
                    <path d="M0,34.3636364 L34,34.3636364" id="Shape"></path>
                </g>
                <g id="browser-code" transform="translate(408.000000, 255.000000)">
                    <polyline id="Shape" points="17.8181818 25.5 12.7272727 30.6 17.8181818 35.7"></polyline>
                    <polyline id="Shape" points="38.1818182 25.5 43.2727273 30.6 38.1818182 35.7"></polyline>
                    <path d="M25.4545455,40.8 L30.5454545,20.4" id="Shape"></path>
                    <rect id="Rectangle-path" x="0" y="0" width="56" height="51"></rect>
                    <path d="M0,10.2 L56,10.2" id="Shape"></path>
                    <path d="M12.7272727,0 L12.7272727,10.2" id="Shape"></path>
                </g>
                <g id="code" transform="translate(332.000000, 18.000000)">
                    <polyline id="Shape" points="7.8 7.75 0 15.5 7.8 23.25"></polyline>
                    <polyline id="Shape" points="31.2 7.75 39 15.5 31.2 23.25"></polyline>
                    <path d="M15.6,31 L23.4,0" id="Shape"></path>
                </g>
                <g id="mouse" transform="translate(421.000000, 200.000000)">
                    <path d="M12,18.1818182 L12,21.8181818" id="Shape"></path>
                    <path d="M12,7.27272727 L12,10.9090909" id="Shape"></path>
                    <ellipse id="Oval" cx="12" cy="14.5454545" rx="3.42857143" ry="3.63636364"></ellipse>
                    <path d="M15.4285714,40 L8.57142857,40 C3.77142857,40 0,36 0,30.9090909 L0,9.09090909 C0,4 3.77142857,0 8.57142857,0 L15.4285714,0 C20.2285714,0 24,4 24,9.09090909 L24,30.9090909 C24,36 20.2285714,40 15.4285714,40 L15.4285714,40 Z" id="Shape"></path>
                </g>
                <g id="iMac" transform="translate(46.000000, 214.000000)">
                    <path d="M57.9090909,74.3478261 L57.9090909,90.8695652" id="Shape"></path>
                    <path d="M33.0909091,90.8695652 L33.0909091,74.3478261" id="Shape"></path>
                    <path d="M20.6818182,90.8695652 L70.3181818,90.8695652" id="Shape"></path>
                    <path d="M41.3636364,12.3913043 L49.6363636,12.3913043" id="Shape"></path>
                    <path d="M82.7272727,74.3478261 L8.27272727,74.3478261 C3.72272727,74.3478261 0,70.6304348 0,66.0869565 L0,8.26086957 C0,3.7173913 3.72272727,0 8.27272727,0 L82.7272727,0 C87.2772727,0 91,3.7173913 91,8.26086957 L91,66.0869565 C91,70.6304348 87.2772727,74.3478261 82.7272727,74.3478261 L82.7272727,74.3478261 Z" id="Shape"></path>
                    <path d="M0,57.826087 L91,57.826087" id="Shape"></path>
                </g>
                <g id="laptop" transform="translate(393.000000, 76.000000)">
                    <path d="M9.63636364,57.6 L9.63636364,9.6 C9.63636364,4.32 13.9727273,0 19.2727273,0 L86.7272727,0 C92.0272727,0 96.3636364,4.32 96.3636364,9.6 L96.3636364,57.6" id="Shape"></path>
                    <path d="M106,57.6 L106,57.6 L106,62.4 C106,67.68 101.663636,72 96.3636364,72 L9.63636364,72 C4.33636364,72 0,67.68 0,62.4 L0,57.6 L0,57.6 L106,57.6 L106,57.6 Z" id="Shape"></path>
                    <path d="M48.1818182,14.4 L57.8181818,14.4" id="Shape"></path>
                </g>
                <g id="launch-rocket" transform="translate(233.000000, 356.000000)">
                    <path d="M40.5954545,6.58636364 L59.4136364,25.0909091" id="Shape"></path>
                    <path d="M33.3818182,10.6636364 C24.2863636,6.58636364 13.3090909,8.46818182 5.78181818,15.9954545 C4.21363636,17.5636364 2.95909091,19.1318182 2.01818182,21.0136364 L12.6818182,31.6772727" id="Shape"></path>
                    <path d="M55.3363636,32.3045455 C59.4136364,41.4 57.5318182,52.6909091 50.0045455,60.2181818 C48.4363636,61.7863636 46.8681818,63.0409091 44.9863636,63.9818182 L34.3227273,53.3181818" id="Shape"></path>
                    <path d="M25.5409091,58.0227273 L7.66363636,40.1454545 C7.66363636,40.1454545 22.7181818,2.50909091 65.3727273,0.313636364 C63.1772727,42.6545455 25.5409091,58.0227273 25.5409091,58.0227273 L25.5409091,58.0227273 Z" id="Shape"></path>
                    <ellipse id="Oval" cx="36.8318182" cy="29.1681818" rx="6.27272727" ry="6.27272727"></ellipse>
                    <path d="M2.01818182,55.2 C4.52727273,52.6909091 8.29090909,52.6909091 10.8,55.2 C13.3090909,57.7090909 13.3090909,61.4727273 10.8,63.9818182 C8.29090909,66.4909091 0.136363636,65.8636364 0.136363636,65.8636364 C0.136363636,65.8636364 -0.490909091,57.7090909 2.01818182,55.2 L2.01818182,55.2 Z" id="Shape"></path>
                </g>
                <g id="cloud" transform="translate(165.000000, 21.000000)">
                    <path d="M29.4545455,25 C33.0545455,25 36,22 36,18.3333333 C36,14.6666667 33.0545455,11.6666667 29.4545455,11.6666667 L29.4545455,11.6666667 C28.9636364,5.16666667 23.7272727,0 17.1818182,0 C10.6363636,0 5.23636364,5.33333333 4.90909091,11.8333333 C2.12727273,12.5 0,15.1666667 0,18.3333333 C0,22 2.94545455,25 6.54545455,25 L29.4545455,25 L29.4545455,25 Z" id="Shape"></path>
                </g>
                <g id="moleskine" transform="translate(237.000000, 0.000000)">
                    <polyline id="Shape" points="32.2222222 0 32.2222222 22.5909091 22.5555556 16.1363636 12.8888889 22.5909091 12.8888889 0"></polyline>
                    <path d="M48.3333333,0 L51.5555556,0 C55.1,0 58,2.90454545 58,6.45454545 L58,64.5454545 C58,68.0954545 55.1,71 51.5555556,71 L45.1111111,71" id="Shape"></path>
                    <rect id="Rectangle-path" x="0" y="0" width="48.3333333" height="71"></rect>
                </g>
                <g id="winston" transform="translate(178.000000, 352.000000)">
                    <ellipse id="Oval" cx="8.59090909" cy="13.1818182" rx="1.22727273" ry="1.31818182"></ellipse>
                    <ellipse id="Oval" cx="18.4090909" cy="13.1818182" rx="1.22727273" ry="1.31818182"></ellipse>
                    <path d="M2.45012727,13.1787336 C0.962181818,11.9760641 0,10.0632636 0,7.90909091 L0,0 L1.22727273e-05,0 C3.63394227,0 6.80676136,2.12046682 8.50443545,5.27223955" id="Shape"></path>
                    <path d="M24.5498727,13.1787336 C26.0378182,11.9760641 27,10.0632636 27,7.90909091 L27,0 L26.9999877,0 C23.3660577,0 20.1932386,2.12046682 18.4955645,5.27223955" id="Shape"></path>
                    <path d="M6.12942955,27.5137764 C4.01562409,26.9258673 2.45454545,24.8632818 2.45454545,22.4090909 L2.45454545,11.8636364 C2.45454545,8.22358273 5.20189364,5.27272727 8.59090909,5.27272727 L18.4090909,5.27272727 C21.7981064,5.27272727 24.5454545,8.22358273 24.5454545,11.8636364 L24.5454545,22.4090909 C24.5454545,24.8657732 22.9812095,26.9300459 20.8641395,27.5155691" id="Shape"></path>
                    <path d="M13.5,23.1053282 L13.5,23.7272727 C13.5,26.6393209 11.3021264,29 8.59090909,29 L6.13636364,29 L6.13636364,22.4090909 C6.13636364,20.2250614 7.784775,18.4545455 9.81818182,18.4545455 L10.7566159,18.4545455" id="Shape"></path>
                    <path d="M13.5,22.4827245 L13.5,23.7272727 C13.5,26.6393209 15.6978736,29 18.4090909,29 L20.8636364,29 L20.8636364,22.4090909 C20.8636364,20.2250614 19.215225,18.4545455 17.1818182,18.4545455 L16.2432736,18.4545455" id="Shape"></path>
                    <path d="M11.9857786,17.1363636 L15.0142214,17.1363636 C15.9681682,17.1363636 16.5574064,18.2541423 16.0665955,19.13275 L14.5523741,21.8433932 C14.0757014,22.696705 12.9242986,22.696705 12.4476136,21.8433932 L10.9334045,19.13275 C10.4425936,18.2541423 11.0318318,17.1363636 11.9857786,17.1363636 L11.9857786,17.1363636 Z" id="Shape"></path>
                </g>
                <g id="Coffee" transform="translate(325.000000, 351.000000)">
                    <polyline id="Shape" points="24.165 8.18181818 21.6 30 5.4 30 2.835 8.18181818"></polyline>
                    <polygon id="Shape" points="20.25 2.72727273 18.9 0 8.1 0 6.75 2.72727273 0 2.72727273 0 8.18181818 27 8.18181818 27 2.72727273"></polygon>
                    <ellipse id="Oval" cx="13.5" cy="17.7272727" rx="4.05" ry="4.09090909"></ellipse>
                </g>
            </g>
        </g>
    </g>
</svg>