<?xml version="1.0" encoding="UTF-8" standalone="no"?>
<svg width="286px" height="286px" viewBox="0 0 286 286" version="1.1" xmlns="http://www.w3.org/2000/svg" xmlns:xlink="http://www.w3.org/1999/xlink">
    <!-- Generator: Sketch 3.8.3 (29802) - http://www.bohemiancoding.com/sketch -->
    <title>spark logo</title>
    <desc>Created with Sketch.</desc>
    <defs>
        <polygon id="path-1" points="142.972 285.660465 0 285.660465 0 0.0542139535 142.972 0.0542139535 285.944001 0.0542139535 285.944001 285.660465"></polygon>
        <polygon id="path-3" points="0 285.945786 285.944537 285.945786 285.944537 0.339534884 0 0.339534884"></polygon>
    </defs>
    <g id="Page-1" stroke="none" stroke-width="1" fill="none" fill-rule="evenodd">
        <g id="Desktop-HD" transform="translate(-577.000000, -150.000000)">
            <g id="spark-logo" transform="translate(577.000000, 150.000000)">
                <g id="Group-3" transform="translate(0.000000, 0.285321)">
                    <mask id="mask-2" fill="white">
                        <use xlink:href="#path-1"></use>
                    </mask>
                    <g id="Clip-2"></g>
                    <path d="M271.450501,285.660465 L14.4943047,285.660465 C6.48915047,285.660465 -0.000536448598,279.178456 -0.000536448598,271.184112 L-0.000536448598,14.5305674 C-0.000536448598,6.53622326 6.48915047,0.0542139535 14.4943047,0.0542139535 L271.450501,0.0542139535 C279.455655,0.0542139535 285.944001,6.53622326 285.944001,14.5305674 L285.944001,271.184112 C285.944001,279.178456 279.455655,285.660465 271.450501,285.660465" id="Fill-1" fill="#171B21" mask="url(#mask-2)"></path>
                </g>
                <mask id="mask-4" fill="white">
                    <use xlink:href="#path-3"></use>
                </mask>
                <g id="Clip-5"></g>
                <polygon id="Fill-4" fill="#272D37" mask="url(#mask-4)" points="32.1654579 51.3302698 77.2244579 51.3302698 77.2244579 33.3282605 32.1654579 33.3282605"></polygon>
                <polygon id="Fill-6" fill="#96A887" mask="url(#mask-4)" points="84.432986 51.3302698 131.932827 51.3302698 131.932827 33.3282605 84.432986 33.3282605"></polygon>
                <polygon id="Fill-7" fill="#D7C49F" mask="url(#mask-4)" points="32.1641168 76.5336186 68.2121215 76.5336186 68.2121215 58.5316093 32.1641168 58.5316093"></polygon>
                <polygon id="Fill-8" fill="#3E4851" mask="url(#mask-4)" points="75.4219907 76.5336186 93.4453224 76.5336186 93.4453224 58.5316093 75.4219907 58.5316093"></polygon>
                <polygon id="Fill-9" fill="#272D37" mask="url(#mask-4)" points="97.9139393 101.736967 123.191397 101.736967 123.191397 83.7349581 97.9139393 83.7349581"></polygon>
                <polygon id="Fill-10" fill="#96A887" mask="url(#mask-4)" points="100.655192 76.5336186 155.150322 76.5336186 155.150322 58.5316093 100.655192 58.5316093"></polygon>
                <polygon id="Fill-11" fill="#65737E" mask="url(#mask-4)" points="32.1654579 101.736967 90.7040701 101.736967 90.7040701 83.7349581 32.1654579 83.7349581"></polygon>
                <polygon id="Fill-12" fill="#A2879E" mask="url(#mask-4)" points="32.1641168 126.940316 68.2121215 126.940316 68.2121215 108.938307 32.1641168 108.938307"></polygon>
                <polygon id="Fill-13" fill="#272D37" mask="url(#mask-4)" points="123.14714 126.940316 162.798738 126.940316 162.798738 108.938307 123.14714 108.938307"></polygon>
                <polygon id="Fill-14" fill="#3E4851" mask="url(#mask-4)" points="97.3077523 178.247181 134.00486 178.247181 134.00486 160.245172 97.3077523 160.245172"></polygon>
                <polygon id="Fill-15" fill="#272D37" mask="url(#mask-4)" points="141.214729 178.247181 185.068061 178.247181 185.068061 160.245172 141.214729 160.245172"></polygon>
                <polygon id="Fill-16" fill="#3E4851" mask="url(#mask-4)" points="75.4219907 126.940316 90.7040701 126.940316 90.7040701 108.938307 75.4219907 108.938307"></polygon>
                <polygon id="Fill-17" fill="#A2879E" mask="url(#mask-4)" points="39 152.002009 61.5295 152.002009 61.5295 134 39 134"></polygon>
                <polygon id="Fill-18" fill="#272D37" mask="url(#mask-4)" points="68.2121215 152.143665 209.699098 152.143665 209.699098 134.141656 68.2121215 134.141656"></polygon>
                <polygon id="Fill-19" fill="#D7C49F" mask="url(#mask-4)" points="216.908967 152.143665 261.967967 152.143665 261.967967 134.141656 216.908967 134.141656"></polygon>
                <polygon id="Fill-20" fill="#8DA7C0" mask="url(#mask-4)" points="50.1887897 178.247181 90.7040701 178.247181 90.7040701 160.245172 50.1887897 160.245172"></polygon>
                <polygon id="Fill-21" fill="#C27179" mask="url(#mask-4)" points="51.052472 202.550363 90.7040701 202.550363 90.7040701 184.548353 51.052472 184.548353"></polygon>
                <polygon id="Fill-22" fill="#272D37" mask="url(#mask-4)" points="97.9514907 202.550363 115.974822 202.550363 115.974822 184.548353 97.9514907 184.548353"></polygon>
                <polygon id="Fill-23" fill="#272D37" mask="url(#mask-4)" points="170.008607 202.550363 238.537234 202.550363 238.537234 184.548353 170.008607 184.548353"></polygon>
                <polygon id="Fill-24" fill="#96A887" mask="url(#mask-4)" points="245.745762 202.550363 272.78143 202.550363 272.78143 184.548353 245.745762 184.548353"></polygon>
                <polygon id="Fill-25" fill="#A2879E" mask="url(#mask-4)" points="39 227.999999 103 227.999999 103 209.99799 39 209.99799"></polygon>
                <polygon id="Fill-26" fill="#272D37" mask="url(#mask-4)" points="108.184248 227.753712 162.798738 227.753712 162.798738 209.751702 108.184248 209.751702"></polygon>
                <polygon id="Fill-27" fill="#A2879E" mask="url(#mask-4)" points="32.1654579 252.95706 49.330472 252.95706 49.330472 234.955051 32.1654579 234.955051"></polygon>
                <polygon id="Fill-28" fill="#65737E" mask="url(#mask-4)" points="56.539 252.95706 103.814874 252.95706 103.814874 234.955051 56.539 234.955051"></polygon>
                <polygon id="Fill-29" fill="#272D37" mask="url(#mask-4)" points="13.1631075 51.3302698 24.8737804 51.3302698 24.8737804 33.3282605 13.1631075 33.3282605"></polygon>
                <polygon id="Fill-30" fill="#272D37" mask="url(#mask-4)" points="13.1631075 76.5336186 24.8737804 76.5336186 24.8737804 58.5316093 13.1631075 58.5316093"></polygon>
                <polygon id="Fill-31" fill="#272D37" mask="url(#mask-4)" points="13.1631075 101.736967 24.8737804 101.736967 24.8737804 83.7349581 13.1631075 83.7349581"></polygon>
                <polygon id="Fill-32" fill="#272D37" mask="url(#mask-4)" points="13.1631075 126.940316 24.8737804 126.940316 24.8737804 108.938307 13.1631075 108.938307"></polygon>
                <polygon id="Fill-33" fill="#272D37" mask="url(#mask-4)" points="13.1631075 152.143665 24.8737804 152.143665 24.8737804 134.141656 13.1631075 134.141656"></polygon>
                <polygon id="Fill-34" fill="#272D37" mask="url(#mask-4)" points="13.1631075 178.247181 24.8737804 178.247181 24.8737804 160.245172 13.1631075 160.245172"></polygon>
                <polygon id="Fill-35" fill="#272D37" mask="url(#mask-4)" points="13.1631075 202.550363 24.8737804 202.550363 24.8737804 184.548353 13.1631075 184.548353"></polygon>
                <polygon id="Fill-36" fill="#272D37" mask="url(#mask-4)" points="13.1631075 227.753712 24.8737804 227.753712 24.8737804 209.751702 13.1631075 209.751702"></polygon>
                <polygon id="Fill-37" fill="#272D37" mask="url(#mask-4)" points="13.1631075 252.95706 24.8737804 252.95706 24.8737804 234.955051 13.1631075 234.955051"></polygon>
                <path d="M178.598759,111.011773 C178.158871,111.819513 177.094021,112.063308 176.367133,111.500703 C175.534296,110.855047 174.453352,110.102229 173.125642,109.240908 C170.907427,107.806266 168.213114,106.402433 165.042703,105.025392 C161.938007,103.680499 158.575815,102.535196 154.957469,101.590824 C151.694521,100.73888 148.33367,100.201727 144.962091,100.113317 C137.347203,99.9110474 131.737292,101.160833 128.135039,103.859996 C124.780894,106.370285 123.107175,109.899959 123.107175,114.442322 C123.107175,117.075847 123.73482,119.25795 124.990109,120.991308 C126.248081,122.726006 128.073348,124.250396 130.468591,125.56582 C132.862493,126.881243 135.886721,128.077447 139.539936,129.154433 C143.189128,130.22874 147.41232,131.367345 152.201464,132.560871 C158.425609,134.237968 164.083801,136.030266 169.173357,137.944461 C174.261572,139.857317 178.571936,142.248387 182.105792,145.117671 C185.634282,147.988294 188.360782,151.429559 190.278586,155.433429 C192.191025,159.441317 193.151268,164.374824 193.151268,170.23395 C193.151268,177.050843 191.861109,182.879159 189.288838,187.724257 C186.712544,192.566675 183.241721,196.484815 178.872348,199.473317 C174.500292,202.463159 169.472427,204.64794 163.786072,206.022303 C158.098376,207.395327 152.139773,208.086527 145.915628,208.086527 C136.334656,208.086527 126.877067,206.649206 117.537497,203.779922 C108.657932,201.04995 100.640707,197.240313 93.493871,192.346992 C92.8622028,191.914322 92.6570112,191.069075 93.0057028,190.388592 L102.471338,171.945875 C102.899156,171.111345 103.985464,170.848796 104.724422,171.426136 C105.828165,172.288796 107.315469,173.297466 109.187675,174.449466 C111.998665,176.185503 115.320623,177.918861 119.15489,179.65088 C122.986474,181.386917 127.236488,182.852368 131.907614,184.045894 C136.576058,185.243438 141.365203,185.840871 146.275049,185.840871 C159.924983,185.840871 166.748609,181.475327 166.748609,172.744238 C166.748609,169.995513 165.968077,167.663382 164.413717,165.747847 C162.855334,163.836331 160.642483,162.161913 157.76846,160.725931 C154.894436,159.291289 151.420932,157.975866 147.35331,156.778322 C143.280324,155.584796 138.729899,154.266694 133.702035,152.833392 C127.595908,151.158973 122.297137,149.333187 117.808404,147.361392 C113.316988,145.388257 109.573918,143.054787 106.581876,140.363661 C103.588493,137.673875 101.342114,134.564815 99.8481047,131.03514 C98.3487308,127.510824 97.6017262,123.296647 97.6017262,118.389931 C97.6017262,111.930694 98.7993477,106.190787 101.194591,101.168871 C103.588493,96.1442753 106.909109,91.9609079 111.161806,88.6107312 C115.41182,85.264573 120.348488,82.7207963 125.979857,80.9874381 C131.607203,79.2554195 137.65432,78.3847219 144.119866,78.3847219 C153.100016,78.3847219 161.361324,79.7912335 168.905133,82.6002381 C175.936633,85.2203684 182.135296,88.2838847 187.502464,91.7867684 C188.164979,92.2194381 188.368829,93.0941544 187.990633,93.7880335 L178.598759,111.011773 Z" id="Fill-38" fill="#FEFEFE" mask="url(#mask-4)"></path>
            </g>
        </g>
    </g>
</svg>